<svg xmlns="http://www.w3.org/2000/svg" viewBox="0 0 58.783 61.188"><g fill="none" stroke="#000"><path stroke-width=".994" d="M24.554 60.338h10.05"/><path stroke-width="1.191" d="M34.372 60.32l2.176-1.305M24.874 60.32l-2.176-1.305"/><path stroke-width="1.05" d="M36.336 59.319l3.29-13.061"/><path stroke-width=".978" d="M22.68 59.355l-2.918-12.776"/><path stroke-width=".969" d="M39.331 46.584l18.2-5.882-2.874-17.646-4.79.98-12.451-8.822-1.916-.98"/><path stroke-width=".983" d="M35.59 14.33H23.857l-1.955.99L9.19 24.221l-4.889-.99L1.37 41.038"/><path stroke-width="1.002" d="M1.29 40.784l18.637 6.14"/><path stroke-width=".997" d="M54.706 22.984l2.015-6.902-2.015-14.789"/><path stroke-width=".992" d="M4.252 23.076l-1.995-6.903L4.252 1.38l10.972 3.945 7.98 8.875"/><path stroke-width=".994" d="M54.953 1.56L43.801 5.458l-8.112 8.772"/><path stroke-width="1.015" d="M36.496 59.068l10.09-6.122L57.685 40.7"/><path stroke-width="1.029" d="M22.92 59.24l-10.294-6.177L1.303 40.709"/><path stroke-width=".978" d="M39.219 46.4h0M50.009 23.53l3.007-7.595.707-13.937M9.06 23.976L5.17 16.025l.088-14.027"/></g><g fill="none" stroke="#000"><path stroke-width=".978" d="M37.804 15.846l-7.43 11.078.178 8.934 8.844 10.274"/><path d="M38.249 37.008l14.659-.093-.883-7.21-2.208.094"/></g><path fill="none" stroke="#000" stroke-width="1.068" d="M51.946 19.465h2.352l-.784 2.308-2.841.192m-43.558-1.92l-2.477-.09.708 2.056 2.742.268"/><g fill="none" stroke="#000"><path stroke-width=".978" d="M30.463 14.774l-.088 3.306h2.918l-3.803 5.092-3.537-5.092 2.741.089-.088-3.752"/><path d="M40 24c-.05.05-.092-.043-.083-.083.024-.11.165-.128.25-.084.152.08.17.284.083.417-.127.196-.403.214-.583.083-.24-.174-.259-.523-.084-.75.221-.285.645-.303.917-.083.33.267.348.765.083 1.083-.312.375-.886.394-1.25.084-.42-.359-.438-1.008-.083-1.417.404-.465 1.128-.484 1.583-.083.51.45.53 1.25.084 1.75-.495.555-1.37.574-1.917.083" transform="matrix(-1.03407 0 0 .97255 63.173 -.436)"/><path d="M40 24c-.05.05-.092-.043-.083-.083.024-.11.165-.128.25-.084.152.08.17.284.083.417-.127.196-.403.214-.583.083-.24-.174-.259-.523-.084-.75.221-.285.645-.303.917-.083.33.267.348.765.083 1.083-.312.375-.886.394-1.25.084-.42-.359-.438-1.008-.083-1.417.404-.465 1.128-.484 1.583-.083.51.45.53 1.25.084 1.75-.495.555-1.37.574-1.917.083" transform="matrix(-.72007 0 0 .68545 46.448 6.713)"/></g><g fill="none" stroke="#000"><path stroke-width="1.006" d="M24.905 47.04l1.886 8.012h6.284l1.885-7.919"/><path stroke-width=".978" d="M21.265 37.198l2.565-3.841v-3.752l-14.858-.18.088 2.145 8.191 3.777zm28.832-5.628v-1.787l-14.593-.178v3.662l2.742 3.663zM24.803 47.294h10.17"/></g><path fill="#f60" d="M23.98 14.768c-2.319 1.12-4.345 2.749-6.483 4.173-2.733 1.892-5.446 3.851-8.2 5.69-1.526-.188-3.039-.673-4.573-.773-.284.876-.335 1.855-.53 2.768-.771 4.604-1.56 9.206-2.265 13.82.607.386 1.413.492 2.095.773 5.365 1.773 10.74 3.525 16.1 5.308 1.02 3.959 1.88 7.983 2.814 11.973.71.501 1.5.932 2.254 1.374 2.957-.01 5.92.026 8.873-.008.63-.432 1.409-.72 1.94-1.263.916-3.293 1.678-6.633 2.536-9.944.155-.75.443-1.501.517-2.252-2.96-3.44-5.92-6.879-8.881-10.317-.16-3.11-.152-6.226-.212-9.338 2.439-3.672 4.956-7.304 7.33-11.013-.339-.42-.967-.537-1.415-.831-.679-.324-1.488-.071-2.22-.151-.913.029-1.853-.059-2.747.043-.022.937-.131 1.91-.1 2.84 1.08.07 2.182-.015 3.268.062-1.488 2.068-3.034 4.095-4.552 6.143-1.525-1.917-2.836-4.007-4.262-6.007-.287-.412.8-.064 1.08-.162.629-.015 1.281.087 1.895.001.043-.956-.007-1.96-.134-2.901-1.37-.037-2.756-.021-4.128-.009zm-2.33 6.65c.936-.124 1.837.81 1.556 1.737-.005.312-.276.526-.338.79.003.181.31.375 0 .453-1.034.673-2.651-.006-2.755-1.278-.092-.89.64-1.714 1.537-1.702zm-4.095.708c.585-.02 1.18.476 1.062 1.11.072.34-.44.592-.167.888-.659.499-1.825.186-1.935-.716-.148-.655.404-1.266 1.04-1.282zm-8.902 6.882c5.2.05 10.4.115 15.599.198.026 1.423.012 2.846.016 4.27-.946 1.382-1.847 2.87-2.838 4.177-3.28-1.324-6.467-2.923-9.701-4.38-1.003-.477-2.052-.919-3.028-1.415-.089-.94-.144-1.9-.14-2.85h.092zm21.23 17.845h5.053c-.027.256.195.417.419.453-.616 2.721-1.282 5.431-1.927 8.146-2.319-.022-4.662.104-6.968-.019-.327-1.024-.524-2.173-.8-3.243-.378-1.659-.808-3.351-1.148-4.99.262.009.225-.39.514-.304 1.617-.073 3.24-.031 4.858-.043zM4.55 2.626c-.672 4.478-1.227 8.99-1.85 13.482.302 1.119.643 2.23.957 3.347.64.183 1.393.03 2.077.075.216.002.778.068.532-.305-.472-1.037-1.062-2.041-1.478-3.09-.021-4.483.02-8.97-.059-13.452-.011-.09-.125-.109-.18-.057zM54.2 2.278c-.231.411-.05.98-.147 1.441-.203 4.128-.417 8.256-.63 12.384-.325.913-.796 1.803-1.026 2.736.513.24 1.168.07 1.73.132.194.086.864-.135.773.165-.336 1.028-.691 2.05-1.039 3.075-.98.116-2.01.085-2.962.264-.058.262-.396.654-.184.914 1.201-.173 2.401-.458 3.59-.717.724-2.167 1.302-4.41 1.967-6.607-.615-4.572-1.215-9.15-1.903-13.713-.022-.084-.103-.093-.169-.074z"/><path fill="#f60" d="M3.746 19.39c-.161.05-.06.234-.037.344.29 1.03.578 2.06.893 3.081.09.128.275.097.408.147 1.068.227 2.138.449 3.21.651.136.022.184-.15.108-.241-.108-.21-.19-.44-.324-.633-.157-.072-.352-.047-.523-.08-.819-.08-1.637-.16-2.456-.238l-1.01-2.931c-.05-.093-.176-.1-.269-.1z"/><path fill="#fff" d="M5.826 2.483c-.226 4.448-.204 8.952-.224 13.42 1.27 2.523 2.45 5.122 3.778 7.597 4.398-2.988 8.704-6.182 13.167-9.075.092-.396-.548-.683-.715-1.028a730.047 730.047 0 00-6.912-7.694c-3.033-1.055-6.055-2.241-9.094-3.22zM53.052 2.728c-3.058 1.038-6.125 2.084-9.129 3.256-2.435 2.705-4.983 5.324-7.357 8.076.032.522.834.525 1.129.876 3.993 2.675 7.863 5.532 11.811 8.272.483-.34.51-1.186.823-1.713.742-1.965 1.603-3.902 2.273-5.883.204-4.26.45-8.518.61-12.78-.06-.023-.081-.138-.16-.104zM55.548 41.884c-5.2 1.553-10.347 3.296-15.52 4.945-1.006 3.532-1.828 7.167-2.759 10.737-.15.512.448.286.653.061 2.815-1.697 5.67-3.353 8.428-5.13 3.11-3.483 6.355-6.883 9.335-10.46.044-.09-.048-.19-.137-.153zM3.371 42.034c.06.517.751.879 1.04 1.336 2.873 3.122 5.696 6.31 8.622 9.368 2.886 1.715 5.727 3.53 8.652 5.162.398-.266-.133-.904-.092-1.289-.715-3.087-1.386-6.186-2.124-9.268-2.851-1.096-5.827-1.957-8.727-2.958-2.424-.794-4.842-1.61-7.276-2.37l-.095.02z"/><path fill="#666" d="M9.334 29.888c.105.622-.074 1.608.794 1.722 3.617 1.722 7.287 3.35 10.926 5.034.576-.417.86-1.255 1.325-1.826.449-.806 1.301-1.494 1.065-2.512-.07-.776.142-1.67-.106-2.372-4.632.021-9.263-.06-13.894-.165l-.083.09-.027.029zM38.01 16.348c-2.383 3.583-4.81 7.143-7.167 10.738.043 2.89.005 5.797.232 8.675 2.878 3.361 5.807 6.712 8.634 10.097 1.011-.002 1.969-.604 2.958-.825 4.747-1.542 9.505-3.055 14.242-4.627.14-.708-.214-1.516-.252-2.257-.788-4.808-1.505-9.643-2.412-14.422-1.34.016-2.687.48-4.022.686-.75.31-1.244-.612-1.871-.891-3.402-2.397-6.777-4.835-10.197-7.204l-.12.025-.025.005zm5.727 12.895c2.888.048 5.82.021 8.68.127.364 2.634.702 5.305.916 7.939-3.502.225-7.047.067-10.565.119h-4.723a9394.08 9394.08 0 01-2.927-3.912v-4.35l8.62.077zM5.374 20.517a1.18 1.18 0 001.357 1.14c.91.268.577-.473.243-.932-.36-.447-1.13-.207-1.6-.208zM51.85 20.053c-.065.418-.522.905-.338 1.313a3.448 3.448 0 001.54-.138c.233-.297.582-.86.323-1.187-.491-.066-1.065-.122-1.524.012z"/><path fill="#666" d="M5.67 20.38c-.368-.076-.497.334-.285.587.313.711 1.259 1.016 1.943.73.224-.374-.155-.844-.39-1.127-.34-.296-.859-.157-1.268-.19zM52.298 19.876c-.664-.03-.815.772-.941 1.273.03.502.734.382 1.063.31.528-.027 1.093-.37 1.087-.962.241-.536-.276-.62-.677-.61a3.58 3.58 0 00-.532-.011zM38.045 16.311c-1.44 1.982-2.72 4.17-4.173 6.157-.141.24-.203.477-.416.676-.502.75-1.019 1.529-1.533 2.25-.307.651-.857 1.206-1.116 1.862.058 2.818.049 5.645.275 8.453.516.802 1.257 1.458 1.841 2.226 2.301 2.606 4.512 5.338 6.83 7.934 1.717-.298 3.335-1.014 5.008-1.494 4.012-1.27 8.013-2.629 12.01-3.907.357-.068.105-.6.135-.842-.87-5.288-1.649-10.596-2.641-15.863-1.212-.051-2.448.378-3.663.553-.46.071-.99.263-1.357-.143-1.57-1.191-3.205-2.27-4.81-3.445-1.17-.83-2.388-1.644-3.507-2.508-.499-.27-.946-.65-1.424-.956a8.647 8.647 0 00-1.46-.953zm1.171 12.897c4.392.069 8.787.07 13.176.182.381 2.63.696 5.29.894 7.931-5.077.102-10.155.077-15.233.112-.948-1.307-1.945-2.571-2.867-3.882-.15-1.456-.032-2.932-.07-4.395l4.1.052z"/><path d="M4.634 2.025c-.038.054-.026.128-.042.191-.015.127-.038.253-.048.38.005.058.07.046.11.053.04.019.022.076.03.112.01.402.01.804.022 1.206.005.062.1.055.098-.006.006-.622.007-1.243.011-1.864-.013-.063-.091-.06-.14-.08-.015-.005-.027.005-.04.008zM28.285 47.714c-.888.025-1.787-.023-2.669.06-.172.428.172.954.207 1.418.434 1.776.793 3.585 1.285 5.338.47.278 1.09.095 1.615.161 1.312-.012 2.665.037 3.952-.047.288-.358.257-.96.421-1.413.413-1.762.85-3.52 1.243-5.286-.156-.357-.717-.122-1.043-.206a236.57 236.57 0 00-5.011-.025zM50.473 30.179c-.164.519.085 1.21-.127 1.658-3.253 1.474-6.51 2.936-9.76 4.414-.34.532.572.352.874.376 3.598-.027 7.212-.005 10.8-.1.392-.183.048-.748.1-1.087-.219-1.707-.329-3.443-.651-5.128-.262-.342-.814-.167-1.17-.162l-.066.029z"/><g><path d="M8.758 29.452c-.013.528-.047 1.117.096 1.63 4.125 2.01 8.223 4.09 12.38 6.013.332-.147.447-.652.694-.934.61-.986 1.256-1.96 1.836-2.964-.026-1.186.051-2.397-.039-3.568-2.804-.087-5.626-.068-8.438-.12-2.15-.027-4.298-.063-6.448-.098l-.062.032-.02.01z"/><path fill="#fff" d="M35.935 30.075a44.378 44.378 0 00-.002 3.047c.826 1.071 1.584 2.206 2.467 3.225.986-.348 1.937-.862 2.91-1.273 2.774-1.253 5.548-2.509 8.322-3.763.103-.325.072-.742.022-1.081-3.095-.094-6.206-.093-9.307-.143-1.462.002-2.94-.07-4.392-.021l-.02.009zM29.055 14.797a58.598 58.598 0 00.082 3.812c-.705.018-1.432-.124-2.126-.004-.186.204.206.424.259.615.733 1.021 1.401 2.1 2.194 3.07.299-.052.41-.466.63-.659.754-1.008 1.552-2.003 2.25-3.04-.235-.219-.717-.033-1.045-.095h-1.373c.035-1.228.127-2.471.102-3.692-.275-.08-.682-.06-.973-.007z"/><path fill="red" d="M36.474 29.99c-.244.027-.723-.08-.621.321.014.951-.029 1.911.02 2.856.829 1.082 1.606 2.226 2.506 3.238.805-.232 1.572-.68 2.361-1.001 2.984-1.341 5.964-2.691 8.944-4.04.148-.323.018-.748.062-1.108-.224-.247-.697-.05-1.016-.123-4.085-.065-8.17-.137-12.256-.142zM29.349 14.712c-.698-.023-.335.737-.41 1.12l.048 2.737c-.726.036-1.52-.222-2.215.008-.288.4.343.807.51 1.149.736.873 1.363 1.85 2.2 2.632 1.166-1.087 2.135-2.371 3.097-3.613.142-.383-.564-.298-.8-.311l-1.746-.03.131-3.524c-.157-.2-.563-.166-.815-.168z"/></g></svg>
